<?xml version="1.0" encoding="UTF-8" standalone="no"?>
<!-- Created with Inkscape (http://www.inkscape.org/) -->

<svg
   width="185.20554mm"
   height="112.91819mm"
   viewBox="0 0 185.20554 112.91819"
   version="1.1"
   id="svg1"
   xml:space="preserve"
   inkscape:version="1.3.2 (091e20e, 2023-11-25)"
   sodipodi:docname="matmapper_logo.svg"
   xmlns:inkscape="http://www.inkscape.org/namespaces/inkscape"
   xmlns:sodipodi="http://sodipodi.sourceforge.net/DTD/sodipodi-0.dtd"
   xmlns="http://www.w3.org/2000/svg"
   xmlns:svg="http://www.w3.org/2000/svg"><sodipodi:namedview
     id="namedview1"
     pagecolor="#ffffff"
     bordercolor="#000000"
     borderopacity="0.25"
     inkscape:showpageshadow="2"
     inkscape:pageopacity="0.0"
     inkscape:pagecheckerboard="0"
     inkscape:deskcolor="#d1d1d1"
     inkscape:document-units="mm"
     inkscape:zoom="0.62520964"
     inkscape:cx="350.28251"
     inkscape:cy="788.5355"
     inkscape:window-width="1920"
     inkscape:window-height="1043"
     inkscape:window-x="2560"
     inkscape:window-y="0"
     inkscape:window-maximized="1"
     inkscape:current-layer="layer1" /><defs
     id="defs1" /><g
     inkscape:label="Layer 1"
     inkscape:groupmode="layer"
     id="layer1"
     transform="translate(-13.567521,-172.99127)"><path
       style="fill:#000000;stroke:none"
       d="m 63.045177,285.69584 c -1.437051,-0.41791 -1.444584,-0.44222 -3.002542,-9.69015 -0.352082,-2.08993 -0.374163,-2.13042 -1.324962,-2.42992 -1.180579,-0.37189 -4.557217,-1.62171 -5.455454,-2.01928 -1.192775,-0.52793 -4.273219,-2.08722 -4.669456,-2.36364 -0.599102,-0.41793 -0.7752,-0.3208 -5.636532,3.109 -6.365096,4.49074 -5.212075,4.7294 -12.478462,-2.58285 -6.855839,-6.8991 -6.628132,-5.64774 -2.17697,-11.96353 3.012971,-4.27513 3.070587,-4.37943 2.67522,-4.84283 -1.218676,-1.42839 -5.583245,-9.92175 -5.583245,-10.86489 0,-0.47374 -0.743927,-0.75378 -2.998612,-1.12876 -1.309687,-0.21782 -3.016249,-0.51097 -3.79236,-0.65145 -5.44053,-0.98477 -5.027084,-0.15872 -5.027084,-10.044 0,-9.06279 -0.02272,-8.98146 2.653289,-9.4975 2.506887,-0.48343 4.318354,-0.80078 5.217527,-0.91405 1.227729,-0.15466 1.185703,-0.0928 1.549176,-2.27921 0.711666,-4.28086 1.991395,-8.21555 3.94724,-12.1363 0.522869,-1.04817 0.905525,-2.00067 0.850349,-2.11667 -0.05518,-0.11601 -0.583188,-0.88561 -1.173357,-1.71023 -3.869331,-5.40644 -4.109119,-4.47263 2.951024,-11.49221 6.32989,-6.29352 6.448155,-6.36039 8.586414,-4.85521 4.911048,3.45703 4.249792,3.194 5.778006,2.29834 0.930975,-0.54563 2.728792,-1.42106 5.006305,-2.43776 1.591134,-0.7103 5.867888,-1.94717 8.24028,-2.38315 1.261773,-0.23189 1.263534,-0.23369 1.467474,-1.50292 0.06235,-0.38806 0.221317,-1.30087 0.353254,-2.02848 0.131937,-0.7276 0.373567,-2.07698 0.536954,-2.99861 0.581338,-3.27919 0.264885,-3.175 9.642774,-3.175 9.712736,0 9.082731,-0.29121 9.921605,4.58611 0.158516,0.92164 0.397243,2.27101 0.530505,2.99861 0.133261,0.72761 0.296877,1.7198 0.36359,2.20487 0.173859,1.26413 0.288125,1.40205 1.523408,1.83882 3.23538,1.14396 6.705666,2.77033 9.374643,4.39349 1.614693,0.98198 1.141731,1.21214 8.75732,-4.26165 3.162322,-2.27296 3.166022,-2.27204 7.331872,1.838 l 3.20157,3.1587 h 3.73713 c 6.72532,0 17.21013,0.615 17.99757,1.05567 0.78825,0.44112 -5.69125,0.98679 -13.74731,1.15772 -6.1351,0.13018 -5.74232,0.006 -4.4369,1.4016 1.54263,1.64908 1.65978,2.70963 0.47126,4.26619 -0.34126,0.44693 -0.62031,0.90041 -0.62012,1.00772 2.6e-4,0.13956 2.67503,0.20796 9.39271,0.24019 21.18185,0.10163 35.77382,0.66106 35.04518,1.34357 -0.47206,0.44217 -15.215,0.91398 -34.59051,1.10697 l -11.93629,0.11889 -0.68423,0.98581 c -0.37633,0.54219 -1.05734,1.51703 -1.51336,2.16631 -0.98378,1.4007 -0.98787,1.44098 -0.26842,2.64423 0.30838,0.51577 0.6674,1.11636 0.79781,1.33464 l 0.23711,0.39688 h 14.62138 c 21.96333,0 43.88562,0.46348 46.18056,0.97636 0.46785,0.10455 0.53446,0.43407 0.0882,0.43628 -0.16978,8.4e-4 -1.97556,0.11612 -4.01285,0.25618 -13.86859,0.95346 -69.901961,0.95356 -84.31389,1.5e-4 -2.134306,-0.14119 -3.979774,-0.25697 -4.101042,-0.25729 -0.420852,-0.001 -0.217858,-0.32585 0.264584,-0.42328 0.266788,-0.0539 1.953507,-0.18022 3.748264,-0.28075 7.199133,-0.40326 6.539677,-0.17706 4.885119,-1.67559 -19.694314,-17.83707 -49.998757,-3.61054 -46.788273,21.96492 3.017588,24.0388 32.239347,36.32927 48.903264,20.56836 1.831491,-1.73224 1.969944,-1.62437 -2.275511,-1.77289 -25.686209,-0.89861 9.695597,-2.45996 42.724015,-1.88535 32.4165,0.56397 29.77717,1.95052 -4.28925,2.25332 l -12.8441,0.11417 -1.02006,2.11629 -1.02005,2.11629 1.04076,1.54032 1.04076,1.54032 3.03381,0.10378 c 1.6686,0.0571 5.17694,0.15027 7.79632,0.20711 18.20931,0.39514 15.63281,1.4747 -5.07118,2.12484 -2.11005,0.0663 -3.83646,0.14982 -3.83646,0.18569 0,0.0359 0.28036,0.46408 0.62302,0.95159 1.49222,2.123 1.45185,2.19422 -4.8308,8.5204 -7.07378,7.1228 -6.04059,6.8626 -11.667217,2.93827 -0.145521,-0.10149 -0.922309,-0.65206 -1.726195,-1.22347 l -1.461611,-1.03893 -1.625194,0.89908 c -3.340382,1.84794 -8.644916,3.87804 -11.201159,4.2868 -0.968128,0.15481 -1.037203,0.26298 -1.349263,2.11282 -1.444773,8.5644 -1.357462,8.26802 -2.61507,8.87682 -0.830527,0.40205 -14.625908,0.5626 -15.923274,0.18531 z m 15.705237,-15.78611 c 10.193519,-1.70185 18.611467,-6.85622 24.901046,-15.24709 1.08558,-1.44826 3.05659,-4.80903 3.05659,-5.21178 0,-0.0439 -0.9043,-0.0799 -2.00957,-0.0799 h -2.00958 l -0.92302,1.80799 c -5.173045,10.13279 -14.720228,17.03578 -26.190466,18.93674 l -1.411111,0.23386 1.499306,-0.0874 c 0.824618,-0.0481 2.21368,-0.20666 3.086805,-0.35243 z m -6.958523,-2.72906 c 11.291651,-0.86607 20.988536,-6.91576 26.368616,-16.45085 0.786869,-1.39456 0.801473,-1.53524 0.159379,-1.53524 -0.289234,0 -0.57326,0.28875 -1.084406,1.10243 -8.735102,13.90523 -28.837105,18.08578 -44.250832,9.20271 -28.378849,-16.35499 -24.344719,-57.15617 6.274793,-63.46323 0.242535,-0.05 -0.07485,-0.0496 -0.705291,8.2e-4 -6.785101,0.54253 -15.457485,5.35982 -20.279758,11.26491 -18.129198,22.20001 -1.553318,57.47996 28.1288,59.86908 2.583773,0.20796 2.794713,0.20833 5.388699,0.009 z M 28.642192,218.8234 c 0.632016,-2.34548 0.692629,-2.52796 1.424787,-4.28923 2.364911,-5.68903 5.633078,-10.16748 10.230656,-14.01932 3.012867,-2.52417 5.544937,-3.97977 10.598726,-6.09283 14.009542,-5.85758 34.60226,0.28714 45.086439,13.45347 l 0.877851,1.10243 h 3.600789 c 1.98043,0 3.60078,-0.0414 3.60078,-0.092 0,-0.59154 -3.60707,-5.22685 -6.085416,-7.82014 -20.389487,-21.33516 -55.896584,-17.11514 -66.766895,7.93524 -0.310215,0.71489 -0.667712,1.53791 -0.794437,1.82896 -1.280549,2.94094 -3.084065,10.96146 -2.579075,11.46955 0.06271,0.0631 0.170029,-0.32346 0.238489,-0.85902 0.06846,-0.53555 0.323749,-1.71326 0.567306,-2.61713 z"
       id="path55"
       sodipodi:nodetypes="ssssssssssssssssssssssssssssssssssscssscssssscsssscssssscsssssssscccccsssssssscssssssssscsscssscssssccssccssssscsssssssss"
       inkscape:export-filename="matmapper_export.png"
       inkscape:export-xdpi="96"
       inkscape:export-ydpi="96" /><path
       d="m 28.675955,218.80923 c 0.632016,-2.34548 0.692629,-2.52796 1.424787,-4.28923 2.364911,-5.68903 5.633078,-10.16748 10.230656,-14.01932 3.012867,-2.52417 5.544937,-3.97977 10.598726,-6.09283 14.009542,-5.85758 34.602259,0.28714 45.086438,13.45347 l 0.877851,1.10243 h 3.600787 c 1.98043,0 3.60078,-0.0414 3.60078,-0.092 0,-0.59154 -3.60707,-5.22685 -6.085414,-7.82014 -20.389487,-21.33516 -55.896583,-17.11514 -66.766894,7.93524 -0.310215,0.71489 -0.667712,1.53791 -0.794437,1.82896 -1.280549,2.94094 -3.084065,10.96146 -2.579075,11.46955 0.06271,0.0631 0.170029,-0.32346 0.238489,-0.85902 0.06846,-0.53555 0.323749,-1.71326 0.567306,-2.61713 z"
       style="fill:#0d6efd;fill-opacity:1;stroke:none"
       id="path1" /><path
       d="m 71.825743,267.14981 c 11.29165,-0.86607 20.988535,-6.91576 26.368615,-16.45085 0.786869,-1.39456 0.801473,-1.53524 0.159379,-1.53524 -0.289234,0 -0.57326,0.28875 -1.084406,1.10243 -8.735102,13.90523 -28.837104,18.08578 -44.25083,9.20271 -28.378849,-16.35499 -24.344719,-57.15617 6.274793,-63.46323 0.242534,-0.05 -0.07485,-0.0496 -0.705291,8.2e-4 -6.785101,0.54253 -15.457486,5.35982 -20.279759,11.26491 -18.129196,22.20001 -1.553318,57.47996 28.128799,59.86908 2.583774,0.20796 2.794714,0.20833 5.3887,0.009 z"
       style="fill:#ffffff;fill-opacity:1;stroke:none"
       id="path1-9" /><path
       d="m 78.76697,269.87319 c 10.19352,-1.70185 18.61147,-6.85622 24.90105,-15.24709 1.08558,-1.44826 3.05659,-4.80903 3.05659,-5.21178 0,-0.0439 -0.9043,-0.0799 -2.00957,-0.0799 h -2.00958 l -0.92302,1.80799 C 96.6094,261.2752 87.06221,268.17819 75.59198,270.07915 l -1.41112,0.23386 1.49931,-0.0874 c 0.82462,-0.0481 2.21368,-0.20666 3.0868,-0.35243 z"
       style="fill:#0d6efd;fill-opacity:1;stroke:none"
       id="path1-6" /><path
       style="fill:#000000"
       d="m 158.38,235.93484 c -0.37305,0 -0.83505,-0.13651 -1.04938,-0.31006 -0.24803,-0.20084 -0.38892,-0.52184 -0.39999,-0.91133 -0.0127,-0.44806 0.10484,-0.70618 0.46139,-1.01287 0.26317,-0.22636 0.70776,-0.41157 0.98798,-0.41157 0.28022,0 0.72481,0.18521 0.98798,0.41157 0.35655,0.30669 0.47413,0.56481 0.46139,1.01287 -0.0111,0.38949 -0.15196,0.71049 -0.4,0.91133 -0.21432,0.17355 -0.67632,0.31006 -1.04937,0.31006 z m 9.26042,-0.0636 c -1.41521,0.044 -2.17445,-0.0144 -2.80558,-0.21595 -0.61422,-0.19612 -1.15367,-0.56672 -1.85908,-1.27719 -0.7315,-0.73674 -1.07339,-1.25063 -1.29546,-1.94719 -0.17759,-0.55703 -0.30169,-1.5101 -0.30169,-2.31689 0,-0.77985 0.12275,-1.75068 0.2848,-2.25243 0.15664,-0.485 0.57479,-1.26552 0.92923,-1.73447 0.35443,-0.46896 1.00807,-1.07747 1.45251,-1.35225 0.44445,-0.27478 1.23676,-0.61369 1.7607,-0.75313 0.52394,-0.13945 1.3561,-0.25448 1.84925,-0.25563 0.49314,-0.001 1.34642,0.0882 1.89618,0.19865 l 0.99955,0.20074 v 1.30309 1.3031 l -0.52474,-0.27136 c -0.28861,-0.14924 -0.98314,-0.31886 -1.5434,-0.37693 -0.59419,-0.0616 -1.34942,-0.0167 -1.81241,0.10768 -0.53825,0.14462 -1.03019,0.45912 -1.52826,0.97706 -0.56963,0.59234 -0.78031,0.98442 -0.93855,1.74664 -0.15096,0.72717 -0.15345,1.22652 -0.01,1.91955 0.1205,0.58043 0.40536,1.19256 0.74897,1.60941 0.30498,0.36999 0.81586,0.78192 1.1353,0.91538 0.31943,0.13347 1.11912,0.24093 1.77708,0.2388 0.79796,-0.003 1.4459,-0.11718 1.94594,-0.34415 l 0.74965,-0.34028 v 1.19778 c 0,1.1331 -0.0262,1.21026 -0.48507,1.42871 -0.27673,0.13174 -1.3184,0.25683 -2.42534,0.29126 z m 10.05416,0.007 c -1.15338,0.04 -1.82867,-0.0273 -2.46944,-0.24591 -0.58172,-0.19848 -1.18431,-0.60348 -1.77017,-1.18974 -0.48852,-0.48885 -1.02869,-1.18788 -1.20038,-1.5534 -0.17168,-0.36551 -0.3883,-1.11957 -0.48137,-1.67569 -0.0931,-0.55612 -0.1182,-1.44768 -0.0558,-1.98126 0.0624,-0.53357 0.26461,-1.37869 0.44944,-1.87803 0.18483,-0.49934 0.65373,-1.26879 1.042,-1.70988 0.39667,-0.45064 1.14754,-1.01885 1.71391,-1.29698 0.87886,-0.43157 1.2113,-0.49478 2.59546,-0.49352 1.2768,0.001 1.76382,0.081 2.48839,0.40778 0.49549,0.22348 1.18467,0.69907 1.53151,1.05688 0.34684,0.35781 0.83658,1.0633 1.08832,1.56775 0.32185,0.64494 0.48903,1.32561 0.56321,2.29306 0.076,0.99151 0.0251,1.68895 -0.18228,2.49663 -0.15827,0.61643 -0.45882,1.37049 -0.66788,1.67569 -0.20906,0.30521 -0.58562,0.78061 -0.8368,1.05644 -0.25118,0.27584 -0.85356,0.70709 -1.33863,0.95835 -0.71902,0.37244 -1.17521,0.46699 -2.46945,0.51183 z m -0.29016,-2.23628 c 0.77833,0 1.17661,-0.0976 1.62156,-0.39747 0.32439,-0.21861 0.74057,-0.65562 0.92484,-0.97113 0.18427,-0.31551 0.37742,-1.0411 0.42923,-1.61242 0.0518,-0.57132 0.041,-1.3934 -0.024,-1.82685 -0.065,-0.43344 -0.33054,-1.11558 -0.59009,-1.51586 -0.25954,-0.40029 -0.74493,-0.85735 -1.07864,-1.0157 -0.42457,-0.20148 -0.86089,-0.25782 -1.45329,-0.18766 -0.46561,0.0551 -1.05181,0.23475 -1.30267,0.39912 -0.25086,0.16437 -0.65113,0.63164 -0.8895,1.03839 -0.26076,0.44496 -0.47735,1.16002 -0.54373,1.79515 -0.077,0.73655 -0.0242,1.35191 0.17463,2.03587 0.2088,0.71824 0.47406,1.15108 0.99244,1.6194 0.64325,0.58114 0.80113,0.63916 1.73921,0.63916 z m -124.593182,2.11667 h -1.146527 v -5.90903 -5.90902 h 1.940278 c 1.067152,0 1.940277,0.0229 1.940277,0.0509 0,0.028 0.635,1.91009 1.411112,4.18245 0.776111,2.27235 1.41612,4.1743 1.422242,4.22654 0.0061,0.0522 0.566523,-1.5322 1.245334,-3.52099 0.678811,-1.98878 1.328836,-3.89378 1.4445,-4.23333 l 0.210297,-0.61736 1.895758,-0.0501 1.895758,-0.0501 v 5.915 5.91499 h -1.336092 -1.336091 l 0.05727,-4.57106 0.05727,-4.57107 -0.765074,2.23391 c -0.420791,1.22866 -1.124483,3.28563 -1.563761,4.57107 l -0.798686,2.33715 h -1.102536 -1.102536 l -0.364003,-1.01424 c -0.200203,-0.55783 -0.816348,-2.28423 -1.369212,-3.83645 -0.552864,-1.55223 -1.106976,-3.17941 -1.231358,-3.61598 -0.199181,-0.69908 -0.228032,-0.24155 -0.241923,3.83646 l -0.01577,4.63021 z m 15.222976,0 c -1.26744,0 -1.407876,-0.0327 -1.325863,-0.30868 0.05045,-0.16977 0.333524,-0.98337 0.629052,-1.80799 0.295528,-0.82461 1.205769,-3.32493 2.022759,-5.55625 l 1.485437,-4.05694 1.575505,-0.0503 1.575505,-0.0503 0.491424,1.37317 c 0.270284,0.75525 0.873839,2.44474 1.341233,3.75442 0.467394,1.30969 1.174701,3.2914 1.571794,4.40379 0.397092,1.1124 0.721985,2.08474 0.721985,2.16077 0,0.076 -0.628385,0.13822 -1.396412,0.13822 h -1.396412 l -0.426273,-1.27882 -0.426273,-1.27882 h -2.101968 -2.101968 l -0.410967,1.27882 -0.410967,1.27882 z m 4.267997,-4.58611 c 1.227288,0 1.410782,-0.0402 1.40858,-0.30868 -0.0014,-0.16977 -0.305434,-1.25723 -0.675648,-2.41656 l -0.673116,-2.10789 -0.735463,2.31145 c -0.404505,1.27129 -0.735464,2.35875 -0.735464,2.41656 0,0.0578 0.635,0.10512 1.411111,0.10512 z m 9.789584,4.58611 h -1.317247 l -0.04693,-4.8066 -0.04693,-4.80659 -1.631597,-0.0507 -1.631598,-0.0507 v -1.05171 -1.05171 h 4.674306 4.674306 v 1.05171 1.05171 l -1.631597,0.0507 -1.631598,0.0507 -0.04693,4.80659 -0.04693,4.8066 z m 7.584723,0 H 88.52999 v -5.90903 -5.90902 h 1.919705 c 1.675976,0 1.931278,0.0392 2.010853,0.30868 0.05013,0.16977 0.640293,1.89632 1.311471,3.83678 0.671178,1.94046 1.275345,3.7264 1.342592,3.96875 0.09635,0.34724 0.417511,-0.4267 1.514995,-3.65082 0.766,-2.2503 1.444447,-4.17515 1.50766,-4.27743 0.06869,-0.11115 0.855867,-0.18596 1.956604,-0.18596 h 1.84168 v 5.90902 5.90903 h -1.33827 -1.338273 l 0.05945,-4.57163 c 0.0327,-2.51439 0.04863,-4.5583 0.03541,-4.54201 -0.01322,0.0163 -0.707753,2.04617 -1.543403,4.51084 -0.835649,2.46467 -1.519363,4.50858 -1.519363,4.54201 0,0.0334 -0.507445,0.0608 -1.127656,0.0608 -0.848989,0 -1.153223,-0.0666 -1.231115,-0.26961 -0.0569,-0.14829 -0.672117,-1.87469 -1.367143,-3.83646 -0.695026,-1.96176 -1.364239,-3.92403 -1.48714,-4.3606 -0.195671,-0.69504 -0.225418,-0.21799 -0.239229,3.83646 l -0.01577,4.63021 z m 15.233522,0 c -0.76285,0 -1.38699,-0.0658 -1.38699,-0.14632 0,-0.0805 0.19925,-0.69563 0.44277,-1.36701 0.24353,-0.67139 1.18218,-3.24476 2.08588,-5.71861 l 1.64311,-4.49792 1.60038,-0.0505 1.60039,-0.0505 0.52977,1.54979 c 0.29137,0.85238 1.21224,3.4669 2.04637,5.81006 0.83413,2.34315 1.5166,4.30768 1.5166,4.36562 0,0.0579 -0.62838,0.10535 -1.39641,0.10535 h -1.39641 l -0.42627,-1.27882 -0.42628,-1.27882 h -2.10196 -2.10197 l -0.421,1.27882 -0.42099,1.27882 z m 4.20748,-4.58611 c 0.77126,0 1.44422,-0.0419 1.49547,-0.0932 0.0513,-0.0513 -0.21313,-1.02359 -0.58752,-2.16076 -0.37439,-1.13717 -0.68091,-2.21971 -0.68115,-2.40566 -2.4e-4,-0.18594 -0.0364,-0.30214 -0.0803,-0.25821 -0.0439,0.0439 -0.37091,1.0295 -0.72664,2.19016 -0.35572,1.16066 -0.68623,2.24921 -0.73446,2.41898 -0.0782,0.27545 0.0633,0.30868 1.31461,0.30868 z m 8.78122,4.58611 h -1.32292 v -5.92938 -5.92938 l 2.95452,0.0764 c 2.62931,0.068 3.04704,0.12103 3.7951,0.48204 0.46232,0.22311 0.98596,0.61461 1.16364,0.87001 0.17769,0.2554 0.41458,0.73417 0.52643,1.06394 0.11186,0.32978 0.20337,0.9458 0.20337,1.36894 0,0.42314 -0.16859,1.128 -0.37463,1.56635 -0.20605,0.43836 -0.66246,1.03508 -1.01424,1.32607 -0.35178,0.29098 -1.03104,0.64584 -1.50946,0.78857 -0.47843,0.14273 -1.3714,0.25952 -1.98438,0.25952 h -1.11451 v 2.02847 2.02847 z m 2.12233,-5.99722 c 0.43968,0 1.06829,-0.11234 1.39692,-0.24965 0.32862,-0.13731 0.68326,-0.4099 0.78808,-0.60577 0.10482,-0.19586 0.19059,-0.68494 0.19059,-1.08683 0,-0.57245 -0.11168,-0.8424 -0.5156,-1.24632 -0.45674,-0.45674 -0.63795,-0.5156 -1.5875,-0.5156 h -1.0719 v 1.85209 1.85208 z m 8.28462,5.99722 h -1.32292 v -5.92938 -5.92938 l 2.95452,0.0764 c 2.60961,0.0675 3.05053,0.12274 3.777,0.47353 0.51331,0.24786 0.99952,0.66467 1.29345,1.10884 0.29332,0.44322 0.50605,1.05409 0.56396,1.61939 0.0511,0.49924 -0.003,1.26489 -0.12008,1.70145 -0.14504,0.54033 -0.45911,1.03036 -0.98372,1.53484 -0.5073,0.48783 -1.08498,0.83443 -1.69046,1.01423 -0.50589,0.15024 -1.42134,0.27316 -2.03432,0.27316 h -1.11451 v 2.02847 2.02847 z m 2.12233,-5.99722 c 0.43968,0 1.07519,-0.11522 1.41224,-0.25605 0.36064,-0.15069 0.68494,-0.44575 0.78808,-0.71704 0.0964,-0.25354 0.17527,-0.73974 0.17527,-1.08043 0,-0.44947 -0.14148,-0.76093 -0.5156,-1.13505 -0.45674,-0.45674 -0.63795,-0.5156 -1.5875,-0.5156 h -1.0719 v 1.85209 1.85208 z m 10.48948,5.99722 h -3.52778 v -5.90903 -5.90902 h 3.43958 3.43959 v 1.05273 1.05274 l -2.07257,0.0497 -2.07257,0.0497 -0.0518,1.27882 -0.0518,1.27882 h 1.948 1.94801 v 1.14652 1.14653 h -1.94028 -1.94028 v 1.32292 1.32291 h 2.20487 2.20486 v 1.05834 1.05833 z m 6.79097,0 h -1.32292 v -5.92938 -5.92938 l 2.95452,0.0681 c 2.71495,0.0626 3.026,0.10358 3.8362,0.50542 0.49891,0.24745 1.0541,0.69751 1.27882,1.03665 0.28626,0.43203 0.39713,0.8597 0.39713,1.53192 0,0.51292 -0.0847,1.15602 -0.18814,1.42913 -0.10347,0.2731 -0.36144,0.68287 -0.57326,0.91059 -0.21182,0.22772 -0.68538,0.568 -1.05236,0.75618 l -0.66723,0.34214 0.56906,0.47854 c 0.31299,0.2632 1.18653,1.43104 1.94121,2.59521 l 1.37216,2.11667 -1.34659,0.052 c -0.74062,0.0286 -1.44087,0.0158 -1.55612,-0.0284 -0.11524,-0.0442 -0.67504,-0.86138 -1.24399,-1.81592 -0.56896,-0.95453 -1.21229,-1.9141 -1.42964,-2.13239 -0.26152,-0.26264 -0.60669,-0.39687 -1.02055,-0.39687 h -0.62538 v 2.20486 2.20486 z m 2.28366,-6.52639 c 0.81888,0 1.0625,-0.0791 1.52997,-0.49679 0.46291,-0.41361 0.55601,-0.62566 0.55601,-1.26653 0,-0.57807 -0.0957,-0.84727 -0.38444,-1.08105 -0.21143,-0.17121 -0.72888,-0.36294 -1.14987,-0.42608 -0.42099,-0.0631 -0.91366,-0.0864 -1.09483,-0.0517 -0.28872,0.0553 -0.33565,0.26424 -0.3801,1.69262 l -0.0507,1.62958 z m 36.44206,6.52639 h -1.24308 v -5.90903 -5.90902 h 1.94406 c 1.84889,0 1.95225,0.0194 2.11139,0.39687 0.092,0.21828 0.57961,1.5875 1.08349,3.04271 0.50389,1.45521 1.08637,3.21913 1.29439,3.91982 l 0.37824,1.274 0.81117,-2.42052 c 0.44615,-1.33129 1.106,-3.2738 1.46635,-4.3167 l 0.65518,-1.89618 h 1.91884 1.91884 v 5.90902 5.90903 h -1.32292 -1.32292 l -0.008,-4.54201 -0.008,-4.54202 -1.47829,4.36089 c -0.81305,2.39848 -1.52865,4.44239 -1.59022,4.54201 -0.0616,0.0996 -0.58521,0.18113 -1.16365,0.18113 -0.92498,0 -1.07126,-0.0478 -1.21398,-0.39687 -0.0893,-0.21829 -0.39898,-1.07157 -0.68827,-1.89618 -0.28929,-0.82462 -0.89746,-2.57087 -1.35147,-3.88056 -0.45402,-1.30969 -0.87682,-2.52241 -0.93955,-2.69494 -0.0627,-0.17253 -0.0905,1.75231 -0.0616,4.27743 l 0.0524,4.59112 z"
       id="path79" /></g></svg>
